TITLE "Giddy"
PERFORMER "Pugwash"
REM GENRE "Rock"
REM DATE "2009"
REM DISCNUMBER 1
REM TOTALDISCS 1
REM DISCID BB0A640D
FILE "Giddy.flac" WAVE
  TRACK 01 AUDIO
    TITLE "Apples"
    ISRC GBFHR0900291
    INDEX 01 00:00:00
  TRACK 02 AUDIO
    TITLE "It's Nice To Be Nice"
    ISRC GBFHR0900292
    INDEX 01 03:44:61
  TRACK 03 AUDIO
    TITLE "Song For You"
    ISRC GBFHR0900293
    INDEX 01 07:10:12
  TRACK 04 AUDIO
    TITLE "Anyone Who Asks"
    ISRC GBFHR0900294
    INDEX 01 09:57:64
  TRACK 05 AUDIO
    TITLE "Cluster Bomb"
    ISRC GBFHR0900295
    INDEX 01 13:49:40
  TRACK 06 AUDIO
    TITLE "Sunsrise Sunset"
    ISRC GBFHR0900296
    INDEX 01 16:27:16
  TRACK 07 AUDIO
    TITLE "The Season Of Flowers And Leaves"
    ISRC GBFHR0900297
    INDEX 01 18:45:26
  TRACK 08 AUDIO
    TITLE "Monorail"
    ISRC GBFHR0900298
    INDEX 01 22:27:15
  TRACK 09 AUDIO
    TITLE "My Genius"
    ISRC GBFHR0900299
    INDEX 01 24:53:11
  TRACK 10 AUDIO
    TITLE "Finer Things In Life"
    ISRC GBFHR0900300
    INDEX 01 28:55:42
  TRACK 11 AUDIO
    TITLE "Black Dog"
    ISRC GBFHR0900301
    INDEX 01 31:56:06
  TRACK 12 AUDIO
    TITLE "Two Wrongs"
    ISRC GBFHR0900302
    INDEX 01 35:04:55
  TRACK 13 AUDIO
    TITLE "Anchor"
    ISRC GBFHR0900303
    INDEX 01 38:43:22
